<svg width="1001" height="730" viewBox="0 0 1001 730" fill="none" xmlns="http://www.w3.org/2000/svg">
<g clip-path="url(#clip0_18_419)">
<path d="M680.614 291.091C546.617 210.136 483.37 -38.5781 276.51 110.048C69.654 258.669 155.428 564.027 353.659 637.874C551.89 711.721 806.926 670.004 878.698 532.818C1001.33 298.397 770.498 345.396 680.614 291.091Z" fill="#DEDFEF"/>
<mask id="mask0_18_419" style="mask-type:luminance" maskUnits="userSpaceOnUse" x="157" y="63" width="757" height="611">
<path d="M680.614 291.091C546.617 210.136 483.37 -38.5781 276.51 110.048C69.654 258.669 155.428 564.027 353.659 637.874C551.89 711.721 806.926 670.004 878.698 532.818C1001.33 298.397 770.498 345.396 680.614 291.091Z" fill="white"/>
</mask>
<g mask="url(#mask0_18_419)">
<path d="M137.055 578.842C137.055 578.842 251.322 464.288 442.175 518.64C633.028 573 745.396 526.401 721.7 238.363C721.7 238.363 989.95 275.78 955.559 466.339C913.82 697.598 375.074 785.843 137.055 578.842Z" fill="#D1D4EA"/>
</g>
<path d="M387.312 108.144V219.855C387.312 229.487 379.495 237.275 369.856 237.275H131.592C121.953 237.275 114.136 229.487 114.136 219.855V108.144C114.136 98.5116 121.953 90.7276 131.592 90.7276H369.856C379.495 90.7276 387.312 98.5116 387.312 108.144Z" fill="#B7BDDF"/>
<path d="M387.312 108.144V117.812H114.136V108.144C114.136 98.5116 121.953 90.7276 131.592 90.7276H369.856C379.495 90.7276 387.312 98.5116 387.312 108.144Z" fill="#74A6D8"/>
<path d="M133.193 105.558C133.193 107.581 131.553 109.22 129.533 109.22C127.512 109.22 125.873 107.581 125.873 105.558C125.873 103.538 127.512 101.899 129.533 101.899C131.553 101.899 133.193 103.538 133.193 105.558Z" fill="#FEFEFE"/>
<path d="M147.84 105.558C147.84 107.581 146.204 109.22 144.18 109.22C142.16 109.22 140.52 107.581 140.52 105.558C140.52 103.538 142.16 101.899 144.18 101.899C146.204 101.899 147.84 103.538 147.84 105.558Z" fill="#FEFEFE"/>
<path d="M162.495 105.558C162.495 107.581 160.851 109.22 158.831 109.22C156.807 109.22 155.171 107.581 155.171 105.558C155.171 103.538 156.807 101.899 158.831 101.899C160.851 101.899 162.495 103.538 162.495 105.558Z" fill="#FEFEFE"/>
<path d="M206.118 184.866H151.267C149.476 184.866 148.022 183.417 148.022 181.626V137.245C148.022 135.458 149.476 134.006 151.267 134.006H206.118C207.909 134.006 209.358 135.458 209.358 137.249V181.626C209.358 183.417 207.909 184.866 206.118 184.866Z" fill="#FEFEFE"/>
<path d="M349.54 208.66H148.038C145.909 208.66 144.18 206.936 144.18 204.807C144.18 202.679 145.909 200.95 148.038 200.95H349.54C351.669 200.95 353.394 202.679 353.394 204.807C353.394 206.936 351.669 208.66 349.54 208.66Z" fill="#FEFEFE"/>
<path d="M349.54 179.56H227.292C225.163 179.56 223.438 177.831 223.438 175.703C223.438 173.574 225.163 171.849 227.292 171.849H349.54C351.669 171.849 353.394 173.574 353.394 175.703C353.394 177.831 351.669 179.56 349.54 179.56Z" fill="#FEFEFE"/>
<path d="M303.007 152.211H227.292C225.163 152.211 223.438 150.486 223.438 148.358C223.438 146.229 225.163 144.501 227.292 144.501H303.007C305.136 144.501 306.861 146.229 306.861 148.358C306.861 150.486 305.136 152.211 303.007 152.211Z" fill="#FEFEFE"/>
<path d="M1.74829 322.266L3.0654 323.412C3.0654 323.412 4.16097 322.153 5.59461 320.6C7.02437 319.054 8.81156 317.205 10.0665 316.129C11.9974 314.455 13.8429 312.532 16.2712 311.033C18.6994 309.541 21.6755 308.422 26.0503 308.411C28.9953 308.411 32.5774 308.939 36.9832 310.283C38.2731 310.679 39.5747 311.219 40.9189 311.79C41.7193 312.12 42.6362 312.26 43.7707 312.264C46.4786 312.264 50.3522 311.316 54.2336 308.24C58.3169 304.989 61.1026 302.219 64.032 300.363C66.9653 298.514 70.0386 297.403 75.2836 297.314H75.4623C78.2402 297.321 80.2994 298.145 82.1837 299.504C85.0005 301.54 87.285 304.942 89.7754 308.364C92.2814 311.755 95.0476 315.235 99.2903 316.995C102.721 318.393 108.459 319.66 113.883 320.786C116.587 321.345 119.19 321.854 121.323 322.297C123.441 322.732 125.142 323.12 125.818 323.35L126.37 321.695L126.362 319.951L1.74053 320.522L1.74829 322.266L1.75606 324.014L126.378 323.439C127.233 323.435 127.959 322.813 128.091 321.971C128.227 321.128 127.73 320.308 126.922 320.04C125.877 319.694 124.202 319.329 122.03 318.879C118.794 318.211 114.559 317.395 110.554 316.509C106.563 315.628 102.768 314.653 100.615 313.763C96.3997 312.085 93.4935 307.49 90.1251 302.911C88.4311 300.642 86.5934 298.405 84.239 296.684C81.8923 294.96 78.9784 293.81 75.4623 293.822L75.2331 293.826C69.5102 293.884 65.5317 295.247 62.1516 297.422C58.7715 299.59 55.9858 302.398 52.0617 305.505C48.8137 308.085 45.6822 308.776 43.7707 308.776C42.9936 308.784 42.4069 308.64 42.2787 308.574C40.9267 308.003 39.5164 307.409 38.005 306.946C33.335 305.521 29.4149 304.923 26.0503 304.923C21.0578 304.911 17.3085 306.278 14.4335 308.065C11.5623 309.848 9.53033 311.992 7.78976 313.48C4.87586 315.997 0.462274 321.093 0.431192 321.12C-0.0194918 321.637 -0.124362 322.371 0.159258 322.996C0.442878 323.618 1.06838 324.014 1.75606 324.014L1.74829 322.266Z" fill="#DBDCEE"/>
<path d="M679.231 93.7572C679.231 93.7572 687.981 83.6932 693.346 79.0827C703.005 70.7782 714.081 56.0998 749.511 66.9173C752.261 67.7563 754.927 68.875 757.58 69.9975C760.704 71.3181 770.378 71.3531 780.285 63.4875C796.032 50.992 802.19 41.5611 823.757 41.2659C848.855 40.928 852.803 72.2037 872.307 80.213C884.724 85.3052 917.472 90.3702 924.248 92.6269L679.231 93.7572Z" fill="#DBDCEE"/>
<path d="M485.589 187.219L483.778 182.038L481.971 187.219C480.445 191.589 476.816 195.279 471.913 197.458C476.816 199.637 480.445 203.327 481.971 207.697L483.778 212.882L485.589 207.697C487.115 203.327 490.74 199.637 495.647 197.458C490.74 195.279 487.115 191.589 485.589 187.219Z" fill="#FEFEFE"/>
<path d="M322.014 483.57L320.203 478.384L318.393 483.57C316.866 487.939 313.241 491.626 308.334 493.808C313.241 495.984 316.866 499.677 318.393 504.047L320.203 509.233L322.014 504.047C323.537 499.677 327.162 495.984 332.072 493.808C327.162 491.626 323.537 487.939 322.014 483.57Z" fill="#FEFEFE"/>
<path d="M812.42 452.344L811.227 448.926L810.031 452.344C809.024 455.226 806.635 457.662 803.395 459.099C806.635 460.54 809.024 462.972 810.031 465.858L811.227 469.28L812.42 465.858C813.426 462.972 815.816 460.54 819.056 459.099C815.816 457.662 813.426 455.226 812.42 452.344Z" fill="#FEFEFE"/>
<path d="M242.95 280.316L241.753 276.894L240.56 280.316C239.554 283.198 237.161 285.634 233.924 287.071C237.161 288.508 239.554 290.94 240.56 293.826L241.753 297.244L242.95 293.826C243.956 290.94 246.349 288.508 249.586 287.071C246.349 285.634 243.956 283.198 242.95 280.316Z" fill="#FEFEFE"/>
<path d="M630.472 -4.57764e-05H517.074C510.889 -4.57764e-05 505.873 4.99506 505.873 11.1748V72.4251C505.873 78.6049 510.889 83.6039 517.074 83.6039H523.178V111.629L551.21 83.6039H630.472C636.657 83.6039 641.673 78.6049 641.673 72.4251V11.1748C641.673 4.99506 636.657 -4.57764e-05 630.472 -4.57764e-05Z" fill="#74A6D8"/>
<path d="M532.988 59.9956H559.742C561.805 59.9956 563.479 61.6697 563.479 63.7322C563.479 65.7948 561.805 67.465 559.742 67.465H532.988C530.925 67.465 529.254 65.7948 529.254 63.7322C529.254 61.6697 530.925 59.9956 532.988 59.9956Z" fill="#FEFEFE"/>
<path d="M532.988 41.2853H582.287C584.351 41.2853 586.025 42.9594 586.025 45.0219C586.025 47.0845 584.351 48.7547 582.287 48.7547H532.988C530.925 48.7547 529.254 47.0845 529.254 45.0219C529.254 42.9594 530.925 41.2853 532.988 41.2853Z" fill="#FEFEFE"/>
<path d="M532.988 23.0995H617.74C619.803 23.0995 621.478 24.7736 621.478 26.8361C621.478 28.8986 619.803 30.5727 617.74 30.5727H532.988C530.925 30.5727 529.254 28.8986 529.254 26.8361C529.254 24.7736 530.925 23.0995 532.988 23.0995Z" fill="#FEFEFE"/>
<path d="M560.177 525.554H691.485C717.838 525.554 739.965 505.725 742.836 479.538L761.772 282.488H630.534L627.853 396.742L560.177 525.554Z" fill="#B7BCDF"/>
<path d="M560.177 523.429C593.908 522.078 627.643 521.484 661.375 520.94L686.675 520.742C688.719 520.695 691.034 520.777 692.861 520.621C694.772 520.563 696.672 520.408 698.552 520.058C702.325 519.499 706.004 518.388 709.493 516.888C723.585 510.988 734.211 497.817 737.156 482.898C737.828 479.375 738.166 474.962 738.582 470.802L739.821 458.217L742.288 433.048C743.873 416.264 745.711 399.507 747.487 382.739C751.003 349.203 754.709 315.686 758.777 282.2C758.975 280.549 760.475 279.368 762.13 279.57C763.727 279.765 764.881 281.186 764.776 282.775C762.382 316.428 759.639 350.053 756.702 383.66C755.249 400.463 753.866 417.274 752.223 434.057L749.853 459.247L748.668 471.839C748.244 476.065 748.011 480.074 747.152 484.851C743.663 503.061 730.718 519.336 713.37 526.129C709.097 527.885 704.609 529.159 700.033 529.768C697.748 530.145 695.448 530.301 693.14 530.339C690.755 530.468 688.847 530.347 686.675 530.363L661.375 530.165C627.643 529.625 593.908 529.027 560.177 527.679C559.004 527.628 558.091 526.642 558.137 525.465C558.184 524.354 559.081 523.476 560.177 523.429Z" fill="#4C4C64"/>
<path d="M630.414 529.275V668.439H640.111V529.275" fill="#4C4C64"/>
<path d="M236.768 398.898H660.054V405.481H236.768V398.898Z" fill="#4C4C64"/>
<path d="M610.133 694.712L614.628 710.808L592.754 717.435L585.916 697.559L610.133 694.712Z" fill="#E8B296"/>
<path d="M478.086 683.024V695.951H497.45L499.61 683.024H478.086Z" fill="#E8B296"/>
<path d="M626.82 309.056L597.572 381.232L596.923 382.836C595.183 387.128 591.014 389.723 586.647 389.704L503.36 389.109C499.991 389.082 497.283 386.336 497.306 382.968C497.33 379.915 499.591 377.402 502.524 376.979L584.937 364.946L574.012 373.421L593.698 298.071C596.138 288.733 605.692 283.14 615.036 285.579C624.376 288.019 629.971 297.57 627.531 306.908C627.348 307.615 627.084 308.395 626.82 309.056Z" fill="#DDA488"/>
<path d="M512.412 375.538L483.968 374.947C476.94 374.947 471.237 381.294 471.237 389.125H512.769L512.412 375.538Z" fill="#DDA488"/>
<path d="M580.768 317.838L626.311 328.958L633.782 288.38C635.787 277.477 628.195 267.106 617.025 265.494C607.627 264.138 598.555 269.468 595.33 278.238L580.768 317.838Z" fill="#6B69AE"/>
<path d="M627.853 396.742L487.547 467.928C474.527 474.531 466.656 488.227 467.515 502.8L478.086 683.024H499.61L528.652 490.192L637.889 413.514L627.853 396.742Z" fill="#424156"/>
<path d="M603.093 150.595C603.093 150.595 642.089 137.342 662.571 174.254C663.76 176.402 665.066 178.464 666.651 180.337C670.812 185.25 679.484 194.296 689.045 197.229C726.992 208.87 751.006 280.6 675.474 286.982C580.955 294.975 554.116 276.339 567.636 238.666C577.283 211.803 568.67 192.731 568.67 192.731L603.093 150.595Z" fill="#3C3B4B"/>
<path d="M634.221 246.865L614.049 255.842C602.032 261.183 594.328 273.134 594.483 286.279C594.794 312.761 600.805 378.513 623.179 403.679H691.396C701.956 357.092 695.868 285.498 695.868 285.498C696.551 267.941 683.641 252.804 666.196 250.711L634.221 246.865Z" fill="#5654A1"/>
<path d="M636.101 268.582C628.992 269.406 622.542 264.364 621.637 257.267L616.085 213.923L642.034 210.909L647.547 253.95C648.468 261.163 643.32 267.739 636.101 268.582Z" fill="#E3A98B"/>
<path d="M614.675 246.271L613.637 246.407C596.344 248.66 580.5 236.471 578.243 219.183L573.317 181.416L636.98 173.12L641.906 210.886C644.159 228.174 631.968 244.014 614.675 246.271Z" fill="#E8B296"/>
<path d="M643.969 196.378L638.538 207.639C638.538 207.639 631.307 213.9 629.26 198.157C627.519 184.823 617.837 187.138 617.837 187.138C617.837 187.138 584.665 212.226 565.181 195.011C549.803 181.424 574.657 156.557 603.093 150.595L640.399 166.885L643.969 196.378Z" fill="#3C3B4B"/>
<path d="M634.781 208.093C635.476 213.865 640.725 217.975 646.494 217.279C652.272 216.58 656.382 211.336 655.687 205.564C654.988 199.793 649.739 195.683 643.969 196.378C638.196 197.077 634.081 202.321 634.781 208.093Z" fill="#E8B296"/>
<path d="M643.351 211.752C643.476 212.789 644.42 213.531 645.461 213.407C646.498 213.279 647.24 212.335 647.112 211.294C646.988 210.253 646.044 209.515 645.003 209.639C643.965 209.767 643.223 210.711 643.351 211.752Z" fill="#FEFEFE"/>
<path d="M589.549 227.984L607.417 224.185C607.417 224.185 608.276 231.942 598.493 233.344C590.773 234.451 589.549 227.984 589.549 227.984Z" fill="#FEFEFE"/>
<path d="M691.396 403.679H623.179L514.055 469.598C501.192 477.37 496.09 493.478 502.147 507.236L585.916 697.559L610.133 694.712L565.111 511.05C602.898 509.454 673.058 503.752 691.396 483.321C722.419 448.748 691.396 403.679 691.396 403.679Z" fill="#4C4C64"/>
<path d="M458.761 284.251L497.683 388.826H371.189L335.181 290.322C334.104 287.374 336.292 284.251 339.427 284.251H458.761Z" fill="#74A6D8"/>
<path d="M458.761 284.251H464.818C468.066 284.251 470.976 286.279 472.103 289.328L508.799 388.826H497.683L458.761 284.251Z" fill="#8BB9E3"/>
<path d="M380.669 398.898H497.683V388.826H371.538V389.77C371.538 394.811 375.629 398.898 380.669 398.898Z" fill="#619BD2"/>
<path d="M497.683 398.898H575.741C578.523 398.898 580.78 396.641 580.78 393.86C580.78 391.079 578.523 388.826 575.741 388.826H497.683V398.898Z" fill="#69AADC"/>
<path d="M427.073 336.233C429.467 343.454 426.58 350.912 420.628 352.881C414.668 354.854 407.904 350.593 405.511 343.369C403.117 336.144 406.004 328.686 411.96 326.717C417.912 324.748 424.68 329.005 427.073 336.233Z" fill="#DEE8EC"/>
<path d="M680.195 307.082L650.892 380.642L650.248 382.265C648.511 386.627 644.292 389.276 639.862 389.257L556.564 388.709C553.164 388.686 550.429 385.916 550.452 382.518C550.468 379.438 552.748 376.905 555.705 376.47L638.102 364.274L627.072 372.889L646.708 296.179C649.125 286.741 658.737 281.05 668.178 283.463C677.619 285.879 683.314 295.488 680.898 304.927C680.715 305.637 680.455 306.414 680.195 307.082Z" fill="#E8B296"/>
<path d="M565.6 374.94L537.161 374.342C530.129 374.342 524.429 380.809 524.429 388.783H565.966L565.6 374.94Z" fill="#E8B296"/>
<path d="M633.965 316.171L679.499 327.498L686.971 286.162C688.983 275.057 681.391 264.496 670.221 262.853C660.823 261.474 651.751 266.9 648.526 275.834L633.965 316.171Z" fill="#6B69AE"/>
<path d="M578.558 701.991L567.932 712.478L544.053 718.285C541.594 718.883 539.605 720.686 538.766 723.074L537.553 726.531C536.951 728.244 538.249 730.035 540.067 730L616.92 728.132C619.426 728.077 621.365 725.933 621.159 723.44L615.102 701.676L603.489 704.45C599.604 705.739 595.354 705.3 591.818 703.242L587.688 700.837C584.731 699.113 580.99 699.587 578.558 701.991Z" fill="#3B404C"/>
<path d="M468.249 686.893L457.623 697.38L433.744 703.187C431.289 703.789 429.3 705.588 428.457 707.98L427.248 711.433C426.642 713.15 427.94 714.941 429.758 714.902L499.323 713.438C501.825 713.383 503.768 711.235 503.562 708.742L501.755 686.505L493.18 689.355C489.295 690.645 485.049 690.202 481.509 688.144L477.379 685.739C474.423 684.019 470.681 684.492 468.249 686.893Z" fill="#3B404C"/>
<path d="M793.752 236.592H989.007C995.635 236.592 1001 231.228 1001 224.605V169.239C1001 162.621 995.635 157.253 989.007 157.253H793.752C787.131 157.253 781.762 162.621 781.762 169.239V224.605C781.762 231.228 787.131 236.592 793.752 236.592Z" fill="#5055A2"/>
<path d="M932.955 219.687H973.353C975.443 219.687 977.137 217.998 977.137 215.904V177.94C977.137 175.85 975.443 174.157 973.353 174.157H932.955C930.864 174.157 929.17 175.85 929.17 177.94V215.904C929.17 217.998 930.864 219.687 932.955 219.687Z" fill="#FEFEFE"/>
<path d="M808.888 183.689H913.202C915.005 183.689 916.47 182.228 916.47 180.426C916.47 178.624 915.005 177.159 913.202 177.159H808.888C807.086 177.159 805.625 178.624 805.625 180.426C805.625 182.228 807.086 183.689 808.888 183.689Z" fill="#FEFEFE"/>
<path d="M876.79 200.189H913.202C915.005 200.189 916.47 198.728 916.47 196.926V196.922C916.47 195.12 915.005 193.659 913.202 193.659H876.79C874.987 193.659 873.527 195.12 873.527 196.922V196.926C873.527 198.728 874.987 200.189 876.79 200.189Z" fill="#FEFEFE"/>
<path d="M808.888 200.189H852.414C854.217 200.189 855.678 198.728 855.678 196.926V196.922C855.678 195.12 854.217 193.659 852.414 193.659H808.888C807.086 193.659 805.625 195.12 805.625 196.922V196.926C805.625 198.728 807.086 200.189 808.888 200.189Z" fill="#FEFEFE"/>
<path d="M835.005 216.685H913.202C915.005 216.685 916.47 215.221 916.47 213.418C916.47 211.62 915.005 210.156 913.202 210.156H835.005C833.202 210.156 831.741 211.62 831.741 213.418C831.741 215.221 833.202 216.685 835.005 216.685Z" fill="#FEFEFE"/>
<path d="M307.646 367.206C307.646 367.206 339.835 367.319 333.145 334.202C333.145 334.202 299.382 337.542 307.646 367.206Z" fill="#74A6D8"/>
<path d="M303.613 365.431C303.613 365.431 271.032 365.544 277.804 332.019C277.804 332.019 311.986 335.398 303.613 365.431Z" fill="#74A6D8"/>
<path d="M305.109 365.544C305.109 365.544 281.382 341.64 309.367 320.568C309.367 320.568 331.851 348.372 305.109 365.544Z" fill="#619BD2"/>
<path d="M331.144 362.743H279.078L287.369 398.878H322.192L331.144 362.743Z" fill="#5654A1"/>
<path d="M430.722 405.481V660.383H438.492V405.481" fill="#4C4C64"/>
</g>
<defs>
<clipPath id="clip0_18_419">
<rect width="1001" height="730" fill="white"/>
</clipPath>
</defs>
</svg>
